<svg width="1408" height="44" viewBox="0 0 1408 44" fill="none" xmlns="http://www.w3.org/2000/svg">
<path d="M605.623 31.7864V34H588.502V9.78874H605.104V12.0023H591.062V20.6146H603.582V22.7936H591.062V31.7864H605.623ZM611.639 9.78874H621.497C624.056 9.78874 626.316 10.3076 628.276 11.3452C630.236 12.3597 631.758 13.7894 632.842 15.634C633.925 17.4556 634.467 19.5424 634.467 21.8944C634.467 24.2463 633.925 26.3446 632.842 28.1893C631.758 30.0109 630.236 31.4405 628.276 32.4781C626.316 33.4927 624.056 34 621.497 34H611.639V9.78874ZM621.359 31.7864C623.48 31.7864 625.336 31.3713 626.927 30.5412C628.518 29.6881 629.752 28.5236 630.628 27.0479C631.504 25.5491 631.942 23.8313 631.942 21.8944C631.942 19.9575 631.504 18.2512 630.628 16.7754C629.752 15.2766 628.518 14.1122 626.927 13.2821C625.336 12.4289 623.48 12.0023 621.359 12.0023H614.199V31.7864H621.359ZM649.968 34.2075C646.832 34.2075 644.388 33.3082 642.636 31.5097C640.883 29.7111 640.007 27.094 640.007 23.6583V9.78874H642.567V23.5546C642.567 26.3677 643.201 28.466 644.469 29.8495C645.737 31.233 647.57 31.9247 649.968 31.9247C652.39 31.9247 654.234 31.233 655.502 29.8495C656.771 28.466 657.405 26.3677 657.405 23.5546V9.78874H659.895V23.6583C659.895 27.094 659.019 29.7111 657.266 31.5097C655.537 33.3082 653.104 34.2075 649.968 34.2075ZM678.122 34.2075C675.724 34.2075 673.557 33.6772 671.62 32.6165C669.706 31.5558 668.196 30.0916 667.089 28.2239C666.005 26.3331 665.463 24.2233 665.463 21.8944C665.463 19.5655 666.005 17.4672 667.089 15.5994C668.196 13.7087 669.718 12.2329 671.654 11.1722C673.591 10.1116 675.759 9.58121 678.157 9.58121C679.955 9.58121 681.616 9.88097 683.138 10.4805C684.659 11.08 685.951 11.9562 687.011 13.1091L685.386 14.7348C683.495 12.8209 681.108 11.864 678.226 11.864C676.312 11.864 674.571 12.3021 673.003 13.1783C671.435 14.0545 670.202 15.2536 669.303 16.7754C668.426 18.2973 667.988 20.0036 667.988 21.8944C667.988 23.7852 668.426 25.4915 669.303 27.0133C670.202 28.5352 671.435 29.7342 673.003 30.6104C674.571 31.4866 676.312 31.9247 678.226 31.9247C681.131 31.9247 683.518 30.9563 685.386 29.0194L687.011 30.645C685.951 31.7979 684.648 32.6857 683.103 33.3082C681.581 33.9078 679.921 34.2075 678.122 34.2075ZM707.043 27.5321H693.554L690.649 34H687.986L699.054 9.78874H701.579L712.647 34H709.949L707.043 27.5321ZM706.11 25.4569L700.299 12.452L694.488 25.4569H706.11ZM720.14 12.0023H711.631V9.78874H731.208V12.0023H722.699V34H720.14V12.0023ZM735.297 9.78874H737.856V34H735.297V9.78874ZM756.317 34.2075C753.919 34.2075 751.74 33.6772 749.78 32.6165C747.843 31.5328 746.322 30.057 745.215 28.1893C744.131 26.3216 743.589 24.2233 743.589 21.8944C743.589 19.5655 744.131 17.4672 745.215 15.5994C746.322 13.7317 747.843 12.2675 749.78 11.2068C751.74 10.1231 753.919 9.58121 756.317 9.58121C758.715 9.58121 760.871 10.1116 762.785 11.1722C764.722 12.2329 766.244 13.7087 767.351 15.5994C768.458 17.4672 769.011 19.5655 769.011 21.8944C769.011 24.2233 768.458 26.3331 767.351 28.2239C766.244 30.0916 764.722 31.5558 762.785 32.6165C760.871 33.6772 758.715 34.2075 756.317 34.2075ZM756.317 31.9247C758.231 31.9247 759.961 31.4982 761.506 30.645C763.05 29.7688 764.261 28.5698 765.137 27.0479C766.013 25.503 766.452 23.7852 766.452 21.8944C766.452 20.0036 766.013 18.2973 765.137 16.7754C764.261 15.2305 763.05 14.0315 761.506 13.1783C759.961 12.3021 758.231 11.864 756.317 11.864C754.404 11.864 752.663 12.3021 751.095 13.1783C749.55 14.0315 748.328 15.2305 747.428 16.7754C746.552 18.2973 746.114 20.0036 746.114 21.8944C746.114 23.7852 746.552 25.503 747.428 27.0479C748.328 28.5698 749.55 29.7688 751.095 30.645C752.663 31.4982 754.404 31.9247 756.317 31.9247ZM794.982 9.78874V34H792.872L777.307 14.3543V34H774.748V9.78874H776.858L792.457 29.4344V9.78874H794.982Z" fill="black"/>
<line y1="21.2569" x2="500.078" y2="21.2569" stroke="black" stroke-width="0.720573"/>
<line x1="907.922" y1="21.2569" x2="1408" y2="21.2569" stroke="black" stroke-width="0.720573"/>
</svg>
