<svg width="1408" height="44" viewBox="0 0 1408 44" fill="none" xmlns="http://www.w3.org/2000/svg">
<path d="M599.307 32.1692V34.3828H582.186V10.1716H598.788V12.3852H584.746V20.9974H597.266V23.1765H584.746V32.1692H599.307ZM620.203 34.3828L612.386 23.7299L604.604 34.3828H601.664L610.864 21.9313L602.252 10.1716H605.192L612.49 20.0636L619.753 10.1716H622.52L613.943 21.8621L623.178 34.3828H620.203ZM635.935 10.1716C639.025 10.1716 641.446 10.9094 643.198 12.3852C644.951 13.8609 645.827 15.89 645.827 18.4726C645.827 21.0551 644.951 23.0842 643.198 24.56C641.446 26.0126 639.025 26.739 635.935 26.739H629.432V34.3828H626.873V10.1716H635.935ZM635.866 24.4908C638.264 24.4908 640.097 23.972 641.365 22.9343C642.633 21.8737 643.267 20.3864 643.267 18.4726C643.267 16.5126 642.633 15.0138 641.365 13.9762C640.097 12.9155 638.264 12.3852 635.866 12.3852H629.432V24.4908H635.866ZM668.482 32.1692V34.3828H651.361V10.1716H667.963V12.3852H653.921V20.9974H666.441V23.1765H653.921V32.1692H668.482ZM691.031 34.3828L685.497 26.6006C684.874 26.6698 684.229 26.7044 683.56 26.7044H677.058V34.3828H674.498V10.1716H683.56C686.65 10.1716 689.071 10.9094 690.824 12.3852C692.576 13.8609 693.452 15.89 693.452 18.4726C693.452 20.3633 692.968 21.9659 692 23.2802C691.054 24.5715 689.694 25.5054 687.918 26.0818L693.833 34.3828H691.031ZM683.491 24.5254C685.889 24.5254 687.722 23.995 688.99 22.9343C690.259 21.8737 690.893 20.3864 690.893 18.4726C690.893 16.5126 690.259 15.0138 688.99 13.9762C687.722 12.9155 685.889 12.3852 683.491 12.3852H677.058V24.5254H683.491ZM699.493 10.1716H702.053V34.3828H699.493V10.1716ZM727.051 32.1692V34.3828H709.93V10.1716H726.532V12.3852H712.49V20.9974H725.01V23.1765H712.49V32.1692H727.051ZM753.301 10.1716V34.3828H751.191L735.627 14.7371V34.3828H733.067V10.1716H735.177L750.776 29.8173V10.1716H753.301ZM771.718 34.5903C769.32 34.5903 767.152 34.06 765.216 32.9993C763.302 31.9386 761.791 30.4744 760.685 28.6067C759.601 26.7159 759.059 24.6061 759.059 22.2772C759.059 19.9483 759.601 17.85 760.685 15.9823C761.791 14.0915 763.313 12.6157 765.25 11.5551C767.187 10.4944 769.355 9.96403 771.753 9.96403C773.551 9.96403 775.211 10.2638 776.733 10.8633C778.255 11.4628 779.546 12.339 780.607 13.492L778.981 15.1176C777.091 13.2037 774.704 12.2468 771.822 12.2468C769.908 12.2468 768.167 12.6849 766.599 13.5611C765.031 14.4373 763.798 15.6364 762.898 17.1582C762.022 18.6801 761.584 20.3864 761.584 22.2772C761.584 24.168 762.022 25.8743 762.898 27.3961C763.798 28.918 765.031 30.117 766.599 30.9932C768.167 31.8695 769.908 32.3076 771.822 32.3076C774.727 32.3076 777.114 31.3391 778.981 29.4022L780.607 31.0278C779.546 32.1807 778.244 33.0685 776.699 33.6911C775.177 34.2906 773.517 34.5903 771.718 34.5903ZM803.184 32.1692V34.3828H786.063V10.1716H802.665V12.3852H788.623V20.9974H801.143V23.1765H788.623V32.1692H803.184Z" fill="black"/>
<line y1="21.6397" x2="500.078" y2="21.6397" stroke="black" stroke-width="0.720573"/>
<line x1="907.922" y1="21.6397" x2="1408" y2="21.6397" stroke="black" stroke-width="0.720573"/>
</svg>
