<svg width="1408" height="44" viewBox="0 0 1408 44" fill="none" xmlns="http://www.w3.org/2000/svg">
<path d="M627.592 9.78874C630.682 9.78874 633.103 10.5266 634.855 12.0023C636.608 13.4781 637.484 15.5072 637.484 18.0897C637.484 20.6723 636.608 22.7014 634.855 24.1771C633.103 25.6298 630.682 26.3562 627.592 26.3562H621.089V34H618.53V9.78874H627.592ZM627.523 24.108C629.921 24.108 631.754 23.5892 633.022 22.5515C634.29 21.4908 634.924 20.0036 634.924 18.0897C634.924 16.1298 634.29 14.631 633.022 13.5934C631.754 12.5327 629.921 12.0023 627.523 12.0023H621.089V24.108H627.523ZM659.551 34L654.017 26.2178C653.394 26.287 652.749 26.3216 652.08 26.3216H645.578V34H643.018V9.78874H652.08C655.17 9.78874 657.591 10.5266 659.343 12.0023C661.096 13.4781 661.972 15.5072 661.972 18.0897C661.972 19.9805 661.488 21.5831 660.519 22.8974C659.574 24.1887 658.214 25.1225 656.438 25.699L662.353 34H659.551ZM652.011 24.1426C654.409 24.1426 656.242 23.6122 657.51 22.5515C658.779 21.4908 659.413 20.0036 659.413 18.0897C659.413 16.1298 658.779 14.631 657.51 13.5934C656.242 12.5327 654.409 12.0023 652.011 12.0023H645.578V24.1426H652.011ZM678.597 34.2075C676.199 34.2075 674.02 33.6772 672.06 32.6165C670.123 31.5328 668.601 30.057 667.494 28.1893C666.411 26.3216 665.869 24.2233 665.869 21.8944C665.869 19.5655 666.411 17.4672 667.494 15.5994C668.601 13.7317 670.123 12.2675 672.06 11.2068C674.02 10.1231 676.199 9.58121 678.597 9.58121C680.995 9.58121 683.151 10.1116 685.065 11.1722C687.002 12.2329 688.523 13.7087 689.63 15.5994C690.737 17.4672 691.29 19.5655 691.29 21.8944C691.29 24.2233 690.737 26.3331 689.63 28.2239C688.523 30.0916 687.002 31.5558 685.065 32.6165C683.151 33.6772 680.995 34.2075 678.597 34.2075ZM678.597 31.9247C680.511 31.9247 682.24 31.4982 683.785 30.645C685.33 29.7688 686.54 28.5698 687.417 27.0479C688.293 25.503 688.731 23.7852 688.731 21.8944C688.731 20.0036 688.293 18.2973 687.417 16.7754C686.54 15.2305 685.33 14.0315 683.785 13.1783C682.24 12.3021 680.511 11.864 678.597 11.864C676.683 11.864 674.942 12.3021 673.374 13.1783C671.829 14.0315 670.607 15.2305 669.708 16.7754C668.832 18.2973 668.394 20.0036 668.394 21.8944C668.394 23.7852 668.832 25.503 669.708 27.0479C670.607 28.5698 671.829 29.7688 673.374 30.645C674.942 31.4982 676.683 31.9247 678.597 31.9247ZM699.587 12.0023V21.5139H712.108V23.7275H699.587V34H697.027V9.78874H713.629V12.0023H699.587ZM718.915 9.78874H721.474V34H718.915V9.78874ZM729.352 9.78874H731.911V31.7864H745.47V34H729.352V9.78874ZM766.84 31.7864V34H749.719V9.78874H766.321V12.0023H752.279V20.6146H764.799V22.7936H752.279V31.7864H766.84Z" fill="black"/>
<line y1="21.2569" x2="500.078" y2="21.2569" stroke="black" stroke-width="0.720573"/>
<line x1="907.922" y1="21.2569" x2="1408" y2="21.2569" stroke="black" stroke-width="0.720573"/>
</svg>
